<mxfile host="app.diagrams.net" agent="Mozilla/5.0 (X11; Ubuntu; Linux x86_64; rv:143.0) Gecko/20100101 Firefox/143.0" version="28.2.3">
  <diagram name="Seite-1" id="tv3RCUC1lsHie5otSo7a">
    <mxGraphModel dx="1426" dy="826" grid="1" gridSize="10" guides="1" tooltips="1" connect="1" arrows="1" fold="1" page="1" pageScale="1" pageWidth="827" pageHeight="1169" math="0" shadow="0">
      <root>
        <mxCell id="0" />
        <mxCell id="1" parent="0" />
        <mxCell id="WXT9vqB_ZEsR_uL3IX6r-1" value="" style="whiteSpace=wrap;html=1;aspect=fixed;" parent="1" vertex="1">
          <mxGeometry x="60" y="170" width="480" height="480" as="geometry" />
        </mxCell>
        <mxCell id="WXT9vqB_ZEsR_uL3IX6r-2" value="Replic creation" style="text;html=1;align=center;verticalAlign=middle;resizable=0;points=[];autosize=1;strokeColor=none;fillColor=none;" parent="1" vertex="1">
          <mxGeometry x="60" y="170" width="100" height="30" as="geometry" />
        </mxCell>
        <mxCell id="WXT9vqB_ZEsR_uL3IX6r-23" value="&amp;lt;&amp;lt;extend&amp;gt;&amp;gt;" style="rounded=0;orthogonalLoop=1;jettySize=auto;html=1;dashed=1;dashPattern=8 8;endArrow=open;endFill=0;" parent="1" source="WXT9vqB_ZEsR_uL3IX6r-18" target="WXT9vqB_ZEsR_uL3IX6r-3" edge="1">
          <mxGeometry relative="1" as="geometry" />
        </mxCell>
        <mxCell id="WXT9vqB_ZEsR_uL3IX6r-24" value="&amp;lt;&amp;lt;extend&amp;gt;&amp;gt;" style="rounded=0;orthogonalLoop=1;jettySize=auto;html=1;dashed=1;dashPattern=8 8;" parent="1" source="WXT9vqB_ZEsR_uL3IX6r-19" target="WXT9vqB_ZEsR_uL3IX6r-3" edge="1">
          <mxGeometry relative="1" as="geometry" />
        </mxCell>
        <mxCell id="WXT9vqB_ZEsR_uL3IX6r-40" value="&amp;lt;&amp;lt;extend&amp;gt;&amp;gt;" style="rounded=0;orthogonalLoop=1;jettySize=auto;html=1;dashed=1;dashPattern=8 8;endArrow=open;endFill=0;" parent="1" source="WXT9vqB_ZEsR_uL3IX6r-39" target="WXT9vqB_ZEsR_uL3IX6r-3" edge="1">
          <mxGeometry relative="1" as="geometry" />
        </mxCell>
        <mxCell id="WXT9vqB_ZEsR_uL3IX6r-3" value="Create replic" style="ellipse;whiteSpace=wrap;html=1;" parent="1" vertex="1">
          <mxGeometry x="270" y="395" width="120" height="60" as="geometry" />
        </mxCell>
        <mxCell id="WXT9vqB_ZEsR_uL3IX6r-9" value="&amp;lt;&amp;lt;include&amp;gt;&amp;gt;" style="rounded=0;orthogonalLoop=1;jettySize=auto;html=1;dashed=1;dashPattern=8 8;strokeColor=default;flowAnimation=0;shadow=0;jumpStyle=none;" parent="1" source="WXT9vqB_ZEsR_uL3IX6r-3" target="WXT9vqB_ZEsR_uL3IX6r-4" edge="1">
          <mxGeometry relative="1" as="geometry" />
        </mxCell>
        <mxCell id="WXT9vqB_ZEsR_uL3IX6r-4" value="Authenticate" style="ellipse;whiteSpace=wrap;html=1;" parent="1" vertex="1">
          <mxGeometry x="240" y="240" width="105" height="40" as="geometry" />
        </mxCell>
        <mxCell id="WXT9vqB_ZEsR_uL3IX6r-10" value="" style="ellipse;whiteSpace=wrap;html=1;aspect=fixed;" parent="1" vertex="1">
          <mxGeometry x="300" y="310" width="10" height="10" as="geometry" />
        </mxCell>
        <mxCell id="WXT9vqB_ZEsR_uL3IX6r-11" value="" style="shape=note2;boundedLbl=1;whiteSpace=wrap;html=1;size=13;verticalAlign=top;align=center;" parent="1" vertex="1">
          <mxGeometry x="400" y="270" width="120" height="22" as="geometry" />
        </mxCell>
        <mxCell id="WXT9vqB_ZEsR_uL3IX6r-28" style="rounded=0;orthogonalLoop=1;jettySize=auto;html=1;entryX=1;entryY=0.5;entryDx=0;entryDy=0;dashed=1;dashPattern=8 8;endArrow=none;endFill=0;" parent="1" source="WXT9vqB_ZEsR_uL3IX6r-14" target="WXT9vqB_ZEsR_uL3IX6r-10" edge="1">
          <mxGeometry relative="1" as="geometry" />
        </mxCell>
        <mxCell id="WXT9vqB_ZEsR_uL3IX6r-14" value="&lt;b&gt;Condition&lt;/b&gt;: {Auth required}" style="text;html=1;align=left;verticalAlign=middle;whiteSpace=wrap;rounded=0;fontSize=8;spacingLeft=4;spacing=0;" parent="1" vertex="1">
          <mxGeometry x="400" y="270" width="110" height="22" as="geometry" />
        </mxCell>
        <mxCell id="WXT9vqB_ZEsR_uL3IX6r-18" value="Set description" style="ellipse;whiteSpace=wrap;html=1;" parent="1" vertex="1">
          <mxGeometry x="90" y="340" width="105" height="40" as="geometry" />
        </mxCell>
        <mxCell id="WXT9vqB_ZEsR_uL3IX6r-19" value="Set expiration date" style="ellipse;whiteSpace=wrap;html=1;" parent="1" vertex="1">
          <mxGeometry x="95" y="455" width="95" height="50" as="geometry" />
        </mxCell>
        <mxCell id="WXT9vqB_ZEsR_uL3IX6r-36" style="rounded=0;orthogonalLoop=1;jettySize=auto;html=1;endArrow=none;endFill=0;" parent="1" source="WXT9vqB_ZEsR_uL3IX6r-35" target="WXT9vqB_ZEsR_uL3IX6r-3" edge="1">
          <mxGeometry relative="1" as="geometry" />
        </mxCell>
        <mxCell id="WXT9vqB_ZEsR_uL3IX6r-35" value="User" style="shape=umlActor;verticalLabelPosition=bottom;verticalAlign=top;html=1;" parent="1" vertex="1">
          <mxGeometry x="600" y="395" width="30" height="60" as="geometry" />
        </mxCell>
        <mxCell id="WXT9vqB_ZEsR_uL3IX6r-39" value="Set media mode" style="ellipse;whiteSpace=wrap;html=1;" parent="1" vertex="1">
          <mxGeometry x="110" y="252" width="105" height="40" as="geometry" />
        </mxCell>
      </root>
    </mxGraphModel>
  </diagram>
</mxfile>
